HIERARCHY
ROOT Hips
{
	OFFSET 0.000000 0.000000 0.000000 
	CHANNELS 6 Xposition Yposition Zposition Yrotation Zrotation Xrotation 
	JOINT Lumbar
	{
		OFFSET 0.000000 0.000000 0.000000 
		CHANNELS 3 Zrotation Xrotation Yrotation
		JOINT Neck
		{
			OFFSET 0.000000 0.445665 0.000000 
			CHANNELS 3 Zrotation Xrotation Yrotation
			End Site
			{
				OFFSET 0.000000 0.227535 0.000000 
			}
		}
		JOINT RightShoulder
		{
			OFFSET 0.019635 0.377685 0.194865 
			CHANNELS 3 Zrotation Xrotation Yrotation
			JOINT RightElbow
			{
				OFFSET 0.000000 -0.243375 0.000000 
				CHANNELS 2 Zrotation Yrotation
				JOINT RightWrist
				{
					OFFSET 0.000000 -0.264825 0.000000 
					CHANNELS 2 Zrotation Xrotation
					End Site
					{
						OFFSET 0.006600 -0.176220 0.000990 
					}
				}
			}
		}
		JOINT LeftShoulder
		{
			OFFSET 0.019635 0.377685 -0.194865 
			CHANNELS 3 Zrotation Xrotation Yrotation
			JOINT LeftElbow
			{
				OFFSET 0.000000 -0.243375 0.000000 
				CHANNELS 2 Zrotation Yrotation
				JOINT LeftWrist
				{
					OFFSET 0.000000 -0.264825 0.000000 
					CHANNELS 2 Zrotation Xrotation
					End Site
					{
						OFFSET 0.006600 -0.176220 -0.000990 
					}
				}
			}
		}
	}
	JOINT RightHip
	{
		OFFSET 0.052140 -0.069960 0.075570 
		CHANNELS 3 Zrotation Xrotation Yrotation
		JOINT RightKnee
		{
			OFFSET 0.000000 -0.402270 0.000000 
			CHANNELS 1 Zrotation
			JOINT RightAnkle
			{
				OFFSET 0.000000 -0.404085 0.000000 
				CHANNELS 3 Zrotation Xrotation Yrotation
				End Site
				{
					OFFSET 0.204105 -0.089430 0.008415 
				}
			}
		}
	}
	JOINT LeftHip
	{
		OFFSET 0.052140 -0.069960 -0.075570 
		CHANNELS 3 Zrotation Xrotation Yrotation
		JOINT LeftKnee
		{
			OFFSET 0.000000 -0.402270 0.000000 
			CHANNELS 1 Zrotation
			JOINT LeftAnkle
			{
				OFFSET 0.000000 -0.404085 0.000000 
				CHANNELS 3 Zrotation Xrotation Yrotation
				End Site
				{
					OFFSET 0.204105 -0.089430 -0.008415 
				}
			}
		}
	}
}
MOTION
Frames: 27
Frame Time: 0.02
-0.13188 0.44721 -0.11252 187.42233 0 11.9512 -19.72324 -4.63083 -2.50767 -17.35473 -1.17708 -1.05118 87.97808 -22.44496 32.87006 121.80653 91.65379 -20.05053 -4.92179 70.35429 35.58427 -9.25251 132.42422 -116.1252 -34.05027 7.60398 23.96388 -9.34596 -13.20719 -132.96639 19.53212 12.98024 4.94804 79.12247 -11.17969 2.36616 -109.62385 19.62537 -17.95674 -8.41833
-0.13203 0.44725 -0.11243 187.44118 0 11.94234 -19.7898 -4.61219 -2.52321 -17.28421 -1.13801 -1.09405 87.92051 -22.45527 32.9012 121.85627 91.4771 -20.08522 -4.88198 70.17636 35.54775 -9.31893 132.62571 -114.79658 -33.89811 7.48546 23.94421 -9.35593 -13.20925 -132.95503 19.53187 13.0248 4.97287 79.12446 -11.21325 2.35742 -109.63494 19.62606 -17.95322 -8.40835
-0.1322 0.44727 -0.11232 187.46313 0 11.92786 -19.85924 -4.5902 -2.53533 -17.1887 -1.09456 -1.13171 87.86035 -22.47736 32.95062 121.91026 91.19524 -20.1587 -4.81692 69.95674 35.50928 -9.45541 132.95808 -113.19211 -33.70443 7.08531 23.9227 -9.36335 -13.21191 -132.94287 19.53113 13.08063 5.00483 79.12956 -11.25487 2.34166 -109.65271 19.62701 -17.94836 -8.39488
-0.13235 0.44729 -0.1122 187.48386 0 11.91557 -19.92909 -4.56974 -2.54874 -17.10092 -1.05123 -1.1715 87.7992 -22.4953 32.99226 121.96083 90.95869 -20.21729 -4.76297 69.75274 35.47109 -9.55079 133.21918 -111.79226 -33.54158 6.8147 23.90213 -9.37228 -13.21427 -132.93143 19.53065 13.13194 5.03384 79.13383 -11.29298 2.32947 -109.66752 19.62783 -17.94396 -8.3829
-0.13253 0.44733 -0.11212 187.50354 0 11.90482 -19.99089 -4.54923 -2.56312 -17.02919 -1.01577 -1.2127 87.74864 -22.50706 33.03168 122.01763 90.73215 -20.26764 -4.71023 69.56517 35.43577 -9.68249 133.52656 -110.0612 -33.32876 6.54724 23.88072 -9.37959 -13.21653 -132.91815 19.53006 13.18085 5.06166 79.13526 -11.33022 2.31575 -109.68212 19.62869 -17.94017 -8.37127
-0.13267 0.44734 -0.11198 187.52645 0 11.88951 -20.07093 -4.52813 -2.57483 -16.91695 -0.9626 -1.24949 87.67295 -22.53594 33.08041 122.06244 90.46201 -20.34193 -4.64956 69.33071 35.39371 -9.75565 133.7692 -108.94858 -33.21044 6.20715 23.86079 -9.38989 -13.2194 -132.90868 19.52956 13.23721 5.09356 79.14363 -11.37163 2.30345 -109.69864 19.62952 -17.93476 -8.35804
-0.13271 0.44729 -0.1117 187.55524 0 11.86301 -20.19475 -4.50496 -2.57867 -16.70949 -0.86523 -1.27625 87.55076 -22.59716 33.14644 122.07275 90.07211 -20.48734 -4.56764 68.99852 35.3355 -9.6578 133.81084 -109.66562 -33.35646 5.67735 23.84508 -9.40711 -13.22168 -132.9094 19.52939 13.31354 5.13618 79.16854 -11.41803 2.29771 -109.7197 19.63021 -17.92577 -8.34216
-0.13272 0.44723 -0.11137 187.58767 0 11.83205 -20.33801 -4.48156 -2.58019 -16.46024 -0.74957 -1.2985 87.39855 -22.67792 33.22207 122.07036 89.64654 -20.65256 -4.47967 68.61573 35.26998 -9.498 133.78177 -111.00262 -33.5995 5.09159 23.83099 -9.4278 -13.22496 -132.9141 19.52931 13.39671 5.18251 79.20071 -11.46903 2.29358 -109.74233 19.63086 -17.91515 -8.32476
-0.13274 0.44717 -0.11106 187.61986 0 11.80318 -20.47622 -4.45903 -2.58364 -16.22321 -0.63997 -1.32223 87.24658 -22.75699 33.2956 122.07475 89.25333 -20.79884 -4.39806 68.24297 35.20674 -9.36156 133.77904 -112.02296 -33.80316 4.56901 23.81649 -9.44815 -13.22917 -132.91735 19.52919 13.47513 5.22626 79.23078 -11.52109 2.28794 -109.76362 19.63155 -17.90487 -8.30736
-0.13279 0.44712 -0.11078 187.64595 0 11.77407 -20.59838 -4.433 -2.58325 -16.01373 -0.53972 -1.34834 87.15423 -22.8041 33.35946 122.07737 88.78772 -20.98824 -4.3002 67.92675 35.14868 -9.24636 133.80453 -113.18948 -33.988 3.88281 23.80073 -9.4631 -13.22753 -132.9191 19.52904 13.56029 5.27375 79.25586 -11.56074 2.28486 -109.78764 19.63218 -17.89607 -8.2923
-0.13276 0.44705 -0.11043 187.68586 0 11.74421 -20.75877 -4.41442 -2.59037 -15.73745 -0.41573 -1.36831 86.92668 -22.92479 33.44645 122.0777 88.46652 -21.09231 -4.23521 67.47719 35.07705 -9.07302 133.75367 -114.19179 -34.23247 3.52111 23.78778 -9.49027 -13.23835 -132.92489 19.52899 13.63361 5.31462 79.29307 -11.62645 2.27755 -109.80647 19.63289 -17.88403 -8.27261
-0.13249 0.44695 -0.1099 187.76066 0 11.71556 -21.01805 -4.41531 -2.6187 -15.28548 -0.23046 -1.37386 86.36529 -23.22314 33.58623 122.09823 88.54754 -20.95276 -4.26159 66.70681 34.97869 -8.73971 133.49968 -114.67924 -34.64362 4.12705 23.78395 -9.54934 -13.28311 -132.94118 19.52912 13.66648 5.33289 79.36142 -11.76971 2.25287 -109.80862 19.63418 -17.86143 -8.23586
-0.13214 0.44683 -0.1093 187.84972 0 11.68591 -21.31545 -4.42402 -2.65465 -14.76815 -0.02208 -1.37317 85.66186 -23.59912 33.75006 122.11165 88.77691 -20.72682 -4.32167 65.79759 34.86523 -8.3526 133.17147 -114.9634 -35.10588 5.0522 23.78246 -9.62086 -13.34042 -132.96125 19.52936 13.68828 5.34499 79.44177 -11.93777 2.22499 -109.80583 19.63548 -17.83597 -8.19541
-0.13183 0.44671 -0.10872 187.93377 0 11.65531 -21.59666 -4.42979 -2.68722 -14.28183 0.17565 -1.37439 85.00372 -23.95257 33.90907 122.11402 88.94202 -20.54258 -4.36686 64.92927 34.75286 -7.99909 132.88411 -115.28431 -35.52925 5.79448 23.7789 -9.68719 -13.39214 -132.9795 19.5296 13.71907 5.36209 79.51707 -12.09004 2.202 -109.80658 19.63656 -17.81318 -8.15973
-0.13149 0.44661 -0.10818 188.01162 0 11.63054 -21.87384 -4.43255 -2.71952 -13.78845 0.375 -1.37922 84.4301 -24.25112 34.0444 122.17975 89.09136 -20.34964 -4.40949 64.15312 34.66471 -7.60405 132.56826 -115.86635 -36.02597 6.69369 23.7801 -9.75124 -13.44341 -132.99871 19.52967 13.73339 5.36997 79.59115 -12.26149 2.16426 -109.80193 19.63857 -17.78468 -8.11094
-0.13121 0.44648 -0.10754 188.10588 0 11.59337 -22.16812 -4.44394 -2.75405 -13.29487 0.5758 -1.37527 83.64177 -24.68443 34.23242 122.10761 89.31067 -20.15293 -4.4662 63.15236 34.52249 -7.28452 132.29007 -115.84219 -36.37595 7.34327 23.77134 -9.82348 -13.49862 -133.01629 19.5301 13.77929 5.39565 79.67022 -12.39892 2.15685 -109.80729 19.63864 -17.76728 -8.08862
-0.13109 0.44628 -0.10666 188.24057 0 11.52323 -22.50063 -4.47355 -2.79474 -12.81676 0.77862 -1.34777 82.3389 -25.45055 34.57768 121.69309 89.67756 -19.9773 -4.54816 61.56868 34.23561 -7.18022 132.17465 -114.24497 -36.3515 7.22063 23.73909 -9.91121 -13.56105 -133.03169 19.53163 13.91519 5.47116 79.76223 -12.43538 2.23108 -109.84123 19.63349 -17.78234 -8.1401
-0.13103 0.44607 -0.10568 188.39156 0 11.44078 -22.84859 -4.51274 -2.83742 -12.34115 0.98141 -1.31209 80.81559 -26.35252 34.97088 121.13282 90.11329 -19.79956 -4.64432 59.76374 33.89462 -7.15642 132.09102 -112.03428 -36.17081 6.83716 23.69551 -10.00773 -13.62688 -133.04411 19.53349 14.08314 5.56499 79.85794 -12.43689 2.33685 -109.88505 19.62636 -17.80842 -8.21841
-0.13095 0.44587 -0.10472 188.53593 0 11.36296 -23.18951 -4.54933 -2.87756 -11.86428 1.18165 -1.28042 79.36634 -27.20654 35.33163 120.61597 90.52178 -19.6149 -4.73728 58.05772 33.57788 -7.09888 131.96837 -110.06499 -36.03051 6.57635 23.65457 -10.10255 -13.69182 -133.05653 19.53516 14.23642 5.65093 79.95118 -12.455 2.4296 -109.92497 19.62005 -17.82882 -8.28456
-0.13081 0.44564 -0.10385 188.67729 0 11.28794 -23.53299 -4.57679 -2.92346 -11.38464 1.39322 -1.24625 78.02757 -28.00833 35.74192 120.19719 90.91179 -19.45737 -4.81696 56.35224 33.26232 -7.0228 131.95273 -108.2377 -36.014 6.30844 23.62581 -10.18711 -13.75537 -133.07727 19.53712 14.39001 5.73466 80.05021 -12.47096 2.51518 -109.96382 19.61411 -17.8522 -8.35038
-0.13084 0.44547 -0.10276 188.82883 0 11.20572 -23.87291 -4.62792 -2.95949 -10.91349 1.58125 -1.21674 76.40171 -28.94607 36.05552 119.53712 91.36292 -19.24791 -4.92814 54.59673 32.9313 -7.01094 131.71531 -105.98304 -35.71102 5.99023 23.56707 -10.29625 -13.82127 -133.0768 19.53843 14.55038 5.82762 80.13535 -12.48276 2.62515 -110.0053 19.60689 -17.87175 -8.42337
-0.13118 0.44537 -0.1011 189.00187 0 11.09292 -24.21097 -4.72051 -2.95226 -10.45407 1.70046 -1.19085 74.09376 -30.25932 36.13012 118.26757 91.89354 -18.86187 -5.11467 52.74165 32.57414 -7.10735 130.92214 -102.59789 -34.57501 5.58636 23.4447 -10.45886 -13.90231 -133.04455 19.53887 14.72437 5.93975 80.2024 -12.49163 2.77739 -110.06863 19.59702 -17.88038 -8.50878
-0.1317 0.44537 -0.0992 189.1845 0 10.97547 -24.54256 -4.84022 -2.93754 -10.00519 1.79626 -1.17193 71.49527 -31.69709 36.09879 116.75622 92.4949 -18.43022 -5.33353 50.84709 32.20303 -7.27491 129.8935 -98.82255 -33.1699 5.14108 23.28966 -10.64735 -13.98334 -132.98568 19.53849 14.90353 6.0608 80.25088 -12.49737 2.95574 -110.13088 19.58589 -17.88445 -8.60047
-0.13221 0.4454 -0.09739 189.365 0 10.86969 -24.86918 -4.96211 -2.93682 -9.55949 1.90555 -1.15744 68.99252 -33.0569 36.08907 115.34188 93.11218 -18.04216 -5.54308 48.98194 31.83585 -7.44279 128.93025 -95.29394 -31.94148 4.72023 23.13858 -10.83296 -14.05863 -132.92254 19.53784 15.07871 6.17915 80.29449 -12.50444 3.13431 -110.18286 19.575 -17.88891 -8.69009
-0.13243 0.44509 -0.09566 189.53871 0 10.72478 -25.22964 -5.02463 -2.89289 -9.08149 2.00408 -1.11123 66.63262 -34.51586 36.19069 113.97723 93.53394 -17.55801 -5.73141 47.06202 31.47578 -7.47637 128.14195 -91.45482 -30.48169 4.2674 23.03228 -10.98459 -14.16003 -132.93044 19.53987 15.26229 6.29292 80.39628 -12.51077 3.26545 -110.28165 19.56526 -17.90035 -8.77814
-0.13329 0.44553 -0.0937 189.7261 0 10.65833 -25.51802 -5.21524 -2.93533 -8.67163 2.11785 -1.13204 63.91235 -35.79092 36.03756 112.45304 94.37265 -17.26251 -5.97022 45.24786 31.09973 -7.80453 126.93523 -88.17271 -29.43728 3.87397 22.82609 -11.20901 -14.20482 -132.78154 19.53618 15.42867 6.41751 80.37009 -12.51823 3.49802 -110.28124 19.55307 -17.89665 -8.86962
-0.13581 0.44788 -0.09111 189.97019 0 10.82751 -25.60783 -5.7687 -3.23359 -8.46114 2.29339 -1.34313 60.24365 -36.5711 35.18261 110.55247 96.3973 -17.5048 -6.35069 43.75243 30.6701 -8.9364 124.61102 -86.57359 -29.64714 3.66196 22.34337 -11.6628 -14.11188 -132.22683 19.51629 15.55056 6.5751 80.01446 -12.53089 4.03108 -110.01723 19.53256 -17.84646 -8.97688
